<svg width="339px" height="56px" viewBox="0 0 448.244 96.34" xmlns="http://www.w3.org/2000/svg"><g id="svgGroup" stroke-linecap="round" fill-rule="evenodd" font-size="9pt" stroke="#ffffff" stroke-width="0.25mm" fill="#ffffff" style="stroke:#ffffff;stroke-width:0.25mm;fill:#ffffff"><path d="M 390.919 75 L 372.51 50.537 L 366.846 56.445 L 366.846 75 L 357.813 75 L 357.813 0 L 366.846 0 L 366.846 45.361 L 371.68 39.551 L 388.135 22.168 L 399.122 22.168 L 378.565 44.238 L 401.514 75 L 390.919 75 Z M 447.754 37.695 L 438.672 37.695 Q 438.672 33.984 435.523 31.299 Q 432.374 28.613 427.588 28.613 A 18.294 18.294 0 0 0 424.583 28.845 Q 422.986 29.111 421.695 29.684 A 8.839 8.839 0 0 0 419.874 30.762 A 7.251 7.251 0 0 0 417.929 32.969 Q 417.117 34.427 417.091 36.258 A 8.552 8.552 0 0 0 417.09 36.377 A 6.531 6.531 0 0 0 417.425 38.52 A 5.329 5.329 0 0 0 419.678 41.309 A 12.15 12.15 0 0 0 421.348 42.18 Q 423.172 42.98 426.012 43.744 A 73.127 73.127 0 0 0 429.029 44.482 A 70.196 70.196 0 0 1 433.559 45.646 Q 437.301 46.751 439.991 48.096 Q 444.19 50.195 446.216 53.149 A 11.381 11.381 0 0 1 448.019 57.673 A 15.424 15.424 0 0 1 448.243 60.352 A 14.224 14.224 0 0 1 447.001 66.367 Q 445.591 69.432 442.579 71.704 Q 437.219 75.747 428.842 75.964 A 37.071 37.071 0 0 1 427.881 75.977 A 30.507 30.507 0 0 1 421.944 75.424 A 23.595 23.595 0 0 1 416.651 73.73 A 19.676 19.676 0 0 1 411.83 70.64 A 17.116 17.116 0 0 1 409.009 67.456 A 15.123 15.123 0 0 1 406.251 58.74 L 415.284 58.74 A 10.358 10.358 0 0 0 416.1 62.354 A 9.193 9.193 0 0 0 418.921 65.942 A 11.912 11.912 0 0 0 423.391 68.085 Q 425.424 68.604 427.881 68.604 A 20.695 20.695 0 0 0 431.167 68.358 Q 432.961 68.069 434.423 67.44 A 10.452 10.452 0 0 0 436.109 66.528 A 7.656 7.656 0 0 0 437.937 64.857 A 6.156 6.156 0 0 0 439.21 60.986 A 7.761 7.761 0 0 0 438.805 58.422 A 6.452 6.452 0 0 0 436.451 55.298 A 11.672 11.672 0 0 0 434.575 54.202 Q 432.477 53.2 429.199 52.36 A 59.907 59.907 0 0 0 426.832 51.807 Q 422.33 50.845 419.047 49.632 A 29.103 29.103 0 0 1 415.943 48.291 A 20.571 20.571 0 0 1 413.217 46.643 Q 411.761 45.59 410.729 44.38 A 11.305 11.305 0 0 1 409.986 43.408 A 11.071 11.071 0 0 1 408.178 38.556 A 14.346 14.346 0 0 1 408.057 36.67 A 13.405 13.405 0 0 1 412.491 26.617 A 18.819 18.819 0 0 1 413.55 25.684 Q 419.044 21.191 427.588 21.191 A 28.433 28.433 0 0 1 433.85 21.844 A 19.527 19.527 0 0 1 442.164 25.83 A 15.379 15.379 0 0 1 446.357 31.116 A 15.243 15.243 0 0 1 447.754 37.695 Z M 153.37 22.168 L 166.553 61.768 L 178.858 22.168 L 188.526 22.168 L 167.286 83.154 A 29.98 29.98 0 0 1 164.457 88.922 Q 162.399 92.109 159.738 93.926 A 14.062 14.062 0 0 1 151.612 96.338 L 149.903 96.191 L 146.534 95.557 L 146.534 88.232 L 148.975 88.428 A 18.454 18.454 0 0 0 151.646 88.247 Q 153.09 88.035 154.265 87.576 A 8.336 8.336 0 0 0 156.129 86.572 A 8.326 8.326 0 0 0 157.907 84.772 Q 159.22 83.004 160.22 80.168 A 28.604 28.604 0 0 0 160.352 79.785 L 162.354 74.414 L 143.506 22.168 L 153.37 22.168 Z M 69.825 22.168 L 78.37 22.168 L 78.663 28.809 A 20.007 20.007 0 0 1 85.583 23.126 Q 89.438 21.252 94.176 21.193 A 24.818 24.818 0 0 1 94.483 21.191 A 21.166 21.166 0 0 1 101.522 22.264 Q 111.266 25.694 111.378 40.088 L 111.378 75 L 102.344 75 L 102.344 40.039 Q 102.296 34.326 99.732 31.592 Q 97.664 29.386 93.738 28.96 A 18.441 18.441 0 0 0 91.749 28.857 A 13.921 13.921 0 0 0 87.145 29.599 A 12.481 12.481 0 0 0 84.034 31.201 A 15.915 15.915 0 0 0 78.858 37.354 L 78.858 75 L 69.825 75 L 69.825 22.168 Z M 345.46 75 L 335.987 75 Q 335.206 73.438 334.717 69.434 A 21.481 21.481 0 0 1 327.808 74.341 A 20.155 20.155 0 0 1 319.678 75.977 A 22.593 22.593 0 0 1 313.797 75.248 A 16.988 16.988 0 0 1 306.861 71.558 A 14.202 14.202 0 0 1 301.877 61.217 A 17.812 17.812 0 0 1 301.856 60.352 A 17.307 17.307 0 0 1 302.794 54.521 A 14.557 14.557 0 0 1 308.13 47.534 Q 314.405 42.969 325.782 42.969 L 334.571 42.969 L 334.571 38.818 A 12.803 12.803 0 0 0 334.174 35.541 A 9.196 9.196 0 0 0 331.739 31.274 Q 328.907 28.467 323.389 28.467 A 15.837 15.837 0 0 0 319.589 28.901 A 11.865 11.865 0 0 0 315.284 30.908 A 9.506 9.506 0 0 0 313.455 32.664 A 6.582 6.582 0 0 0 312.012 36.816 L 302.93 36.816 A 11.565 11.565 0 0 1 304.318 31.387 A 15.652 15.652 0 0 1 305.738 29.175 A 18.11 18.11 0 0 1 310.808 24.67 A 22.807 22.807 0 0 1 313.355 23.34 A 24.987 24.987 0 0 1 321.974 21.255 A 29.659 29.659 0 0 1 323.926 21.191 A 29.439 29.439 0 0 1 329.676 21.719 Q 334.816 22.743 338.233 25.757 A 15.51 15.51 0 0 1 343.27 34.935 A 22.2 22.2 0 0 1 343.604 38.33 L 343.604 62.646 A 46.423 46.423 0 0 0 343.804 67.1 Q 344.213 71.332 345.46 74.219 L 345.46 75 Z M 248.096 50.049 L 248.096 48.389 A 35.217 35.217 0 0 1 248.944 40.511 A 28.681 28.681 0 0 1 251.099 34.351 A 24.345 24.345 0 0 1 256.071 27.4 A 22.592 22.592 0 0 1 259.498 24.683 A 21.115 21.115 0 0 1 271.192 21.191 A 25.048 25.048 0 0 1 278.004 22.068 A 18.214 18.214 0 0 1 287.208 27.979 Q 292.921 34.766 292.921 47.412 L 292.921 51.172 L 257.129 51.172 A 23.461 23.461 0 0 0 257.919 56.817 A 16.845 16.845 0 0 0 261.695 63.794 A 14.244 14.244 0 0 0 272.073 68.589 A 18.354 18.354 0 0 0 272.803 68.604 A 19.593 19.593 0 0 0 276.45 68.281 Q 278.772 67.841 280.645 66.801 A 12.287 12.287 0 0 0 280.909 66.65 Q 284.229 64.697 286.719 61.475 L 292.237 65.771 A 21.402 21.402 0 0 1 276.684 75.675 A 30.546 30.546 0 0 1 272.315 75.977 A 26.605 26.605 0 0 1 263.968 74.722 A 21.937 21.937 0 0 1 254.835 68.921 A 23.728 23.728 0 0 1 248.788 57.13 A 34.476 34.476 0 0 1 248.096 50.049 Z M 207.422 3.906 L 207.422 67.334 L 241.114 67.334 L 241.114 75 L 197.999 75 L 197.999 3.906 L 207.422 3.906 Z M 57.178 37.256 L 57.178 41.748 A 52.539 52.539 0 0 1 56.456 50.671 A 38.392 38.392 0 0 1 53.663 59.985 A 29.42 29.42 0 0 1 49.258 67.037 A 24.73 24.73 0 0 1 43.702 71.875 A 26.243 26.243 0 0 1 32.383 75.773 A 33.257 33.257 0 0 1 28.663 75.977 A 29.087 29.087 0 0 1 19.703 74.635 A 25.698 25.698 0 0 1 13.77 71.851 A 26.573 26.573 0 0 1 4.88 62.385 A 32.814 32.814 0 0 1 3.687 60.083 A 38.071 38.071 0 0 1 0.61 49.872 A 50.383 50.383 0 0 1 0.001 42.383 L 0.001 37.256 A 50.218 50.218 0 0 1 0.837 27.884 A 38.458 38.458 0 0 1 3.565 19.141 A 29.878 29.878 0 0 1 8.106 11.921 A 25.278 25.278 0 0 1 13.648 7.104 A 26.547 26.547 0 0 1 26.495 2.995 A 32.447 32.447 0 0 1 28.565 2.93 Q 37.11 2.93 43.629 7.056 A 25.667 25.667 0 0 1 52.223 16.182 A 32.361 32.361 0 0 1 53.663 19.019 A 39.162 39.162 0 0 1 56.553 28.937 A 52.924 52.924 0 0 1 57.178 37.256 Z M 134.815 0 L 134.815 75 L 125.782 75 L 125.782 0 L 134.815 0 Z M 47.852 42.432 L 47.852 37.158 A 50.57 50.57 0 0 0 47.356 29.829 Q 46.811 26.114 45.665 23.094 A 21.595 21.595 0 0 0 42.774 17.749 Q 37.696 10.986 28.565 10.986 A 18.706 18.706 0 0 0 21.969 12.102 A 16.332 16.332 0 0 0 14.576 17.749 A 23.472 23.472 0 0 0 10.969 24.955 Q 9.407 29.955 9.327 36.523 L 9.327 41.748 Q 9.327 54.004 14.478 61.011 A 16.351 16.351 0 0 0 26.332 67.894 A 21.456 21.456 0 0 0 28.663 68.018 A 19.886 19.886 0 0 0 34.868 67.097 A 15.809 15.809 0 0 0 42.725 61.401 Q 47.706 54.785 47.852 42.432 Z M 334.571 60.205 L 334.571 49.365 L 327.491 49.365 A 42.398 42.398 0 0 0 321.849 49.707 Q 315.673 50.541 312.978 53.412 A 7.953 7.953 0 0 0 310.889 59.082 A 10.222 10.222 0 0 0 311.271 61.952 A 7.628 7.628 0 0 0 313.721 65.723 A 9.928 9.928 0 0 0 318.315 67.87 A 13.989 13.989 0 0 0 320.997 68.115 Q 325.245 68.115 329.053 65.918 Q 332.862 63.721 334.571 60.205 Z M 257.422 43.75 L 283.887 43.75 L 283.887 43.066 Q 283.598 37.968 281.702 34.569 A 12.557 12.557 0 0 0 280.176 32.397 A 10.923 10.923 0 0 0 272.905 28.706 A 15.439 15.439 0 0 0 271.192 28.613 Q 265.723 28.613 262.012 32.593 Q 258.751 36.09 257.677 42.059 A 30.452 30.452 0 0 0 257.422 43.75 Z" vector-effect="non-scaling-stroke"/></g></svg>